<?xml version="1.0" encoding="UTF-8" standalone="no"?>
<svg
   xmlns:dc="http://purl.org/dc/elements/1.1/"
   xmlns:cc="http://creativecommons.org/ns#"
   xmlns:rdf="http://www.w3.org/1999/02/22-rdf-syntax-ns#"
   xmlns:svg="http://www.w3.org/2000/svg"
   xmlns="http://www.w3.org/2000/svg"
   xmlns:sodipodi="http://sodipodi.sourceforge.net/DTD/sodipodi-0.dtd"
   xmlns:inkscape="http://www.inkscape.org/namespaces/inkscape"
   width="187.95073mm"
   height="43.157539mm"
   viewBox="0 0 187.95073 43.157539"
   version="1.1"
   id="svg6317"
   sodipodi:docname="surface.svg"
   inkscape:version="1.0beta1 (32d4812, 2019-09-19)">
  <defs
     id="defs6311" />
  <sodipodi:namedview
     fit-margin-bottom="0"
     fit-margin-right="0"
     fit-margin-left="0"
     fit-margin-top="0"
     id="base"
     pagecolor="#ffffff"
     bordercolor="#666666"
     borderopacity="1.0"
     inkscape:pageopacity="0.0"
     inkscape:pageshadow="2"
     inkscape:zoom="0.58616659"
     inkscape:cx="404.27828"
     inkscape:cy="35.071457"
     inkscape:document-units="mm"
     inkscape:current-layer="layer1"
     inkscape:document-rotation="0"
     showgrid="false"
     inkscape:window-width="1112"
     inkscape:window-height="755"
     inkscape:window-x="82"
     inkscape:window-y="23"
     inkscape:window-maximized="0" />
  <metadata
     id="metadata6314">
    <rdf:RDF>
      <cc:Work
         rdf:about="">
        <dc:format>image/svg+xml</dc:format>
        <dc:type
           rdf:resource="http://purl.org/dc/dcmitype/StillImage" />
        <dc:title></dc:title>
      </cc:Work>
    </rdf:RDF>
  </metadata>
  <g
     transform="translate(-11.518641,-118.25274)"
     inkscape:label="Layer 1"
     inkscape:groupmode="layer"
     id="layer1">
    <g
       transform="translate(-8.38431,-0.381105)"
       id="g57">
      <path
         inkscape:connector-curvature="0"
         d="M 202.03125,449.16992 A 126.43154,80.767427 0 0 0 76.013672,529.9375 126.43154,80.767427 0 0 0 202.44531,610.70508 126.43154,80.767427 0 0 0 316.42578,564.88867 126.43154,80.767427 0 0 0 430.40625,610.70508 126.43154,80.767427 0 0 0 544.38867,564.88672 126.43154,80.767427 0 0 0 658.36719,610.70508 126.43154,80.767427 0 0 0 784.79883,529.9375 126.43154,80.767427 0 0 0 658.36719,449.16992 126.43154,80.767427 0 0 0 544.38867,494.98828 126.43154,80.767427 0 0 0 430.40625,449.16992 126.43154,80.767427 0 0 0 316.42578,494.98633 126.43154,80.767427 0 0 0 202.44531,449.16992 a 126.43154,80.767427 0 0 0 -0.41406,0 z"
         style="opacity:1;fill:#000000;fill-opacity:0.137652;stroke:#000000;stroke-width:1.57984;stroke-miterlimit:4;stroke-dasharray:none;stroke-opacity:1;stop-color:#000000;stop-opacity:1"
         id="path42"
         transform="scale(0.26458333)" />
      <ellipse
         ry="2.7328355"
         rx="4.1796303"
         cy="152.235"
         cx="38.902718"
         id="path1009"
         style="opacity:1;fill:#ffffff;fill-opacity:0;stroke-width:0.264583" />
      <g
         transform="translate(-4.5085443,3.0606687)"
         id="g6903"
         style="opacity:1;fill:#ffffff;fill-opacity:1;stop-opacity:1">
        <path
           id="path6895"
           style="fill:#ffffff;fill-opacity:1;stroke:#000000;stroke-width:0.418015;stroke-miterlimit:4;stroke-dasharray:none;stroke-opacity:1;stop-color:#000000"
           d="m 57.994909,126.72353 a 16.324419,10.428421 0 0 0 -15.987654,8.57674 16.324419,10.428421 0 0 0 16.064653,8.5757 16.324419,10.428421 0 0 0 16.064651,-8.57622 16.324419,10.428421 0 0 0 -16.064651,-8.57622 16.324419,10.428421 0 0 0 -0.077,0 z"
           inkscape:connector-curvature="0" />
      </g>
      <g
         transform="translate(116.12111,3.0606687)"
         style="opacity:1;fill:#ffffff;fill-opacity:0.987854;stop-opacity:1"
         id="g56">
        <path
           inkscape:connector-curvature="0"
           d="m 57.994909,126.72353 a 16.324419,10.428421 0 0 0 -15.987654,8.57674 16.324419,10.428421 0 0 0 16.064653,8.5757 16.324419,10.428421 0 0 0 16.064651,-8.57622 16.324419,10.428421 0 0 0 -16.064651,-8.57622 16.324419,10.428421 0 0 0 -0.077,0 z"
           style="fill:#ffffff;fill-opacity:0.987854;stroke:#000000;stroke-width:0.418015;stroke-miterlimit:4;stroke-dasharray:none;stroke-opacity:1;stop-color:#000000"
           id="path54" />
      </g>
      <g
         transform="translate(55.806287,3.0606687)"
         id="g64"
         style="opacity:1;fill:#ffffff;fill-opacity:0.987854;stop-opacity:1">
        <path
           id="path62"
           style="fill:#ffffff;fill-opacity:0.987854;stroke:#000000;stroke-width:0.418015;stroke-miterlimit:4;stroke-dasharray:none;stroke-opacity:1;stop-color:#000000"
           d="m 57.994909,126.72353 a 16.324419,10.428421 0 0 0 -15.987654,8.57674 16.324419,10.428421 0 0 0 16.064653,8.5757 16.324419,10.428421 0 0 0 16.064651,-8.57622 16.324419,10.428421 0 0 0 -16.064651,-8.57622 16.324419,10.428421 0 0 0 -0.077,0 z"
           inkscape:connector-curvature="0" />
      </g>
      <ellipse
         ry="2.627681"
         rx="4.1796303"
         cy="153.09438"
         cx="41.796307"
         id="path1011"
         style="opacity:1;fill:#fffffe;fill-opacity:1;stroke:#000000;stroke-width:0.3;stroke-miterlimit:4;stroke-dasharray:none;stroke-opacity:1" />
      <ellipse
         style="opacity:1;fill:#fffffe;fill-opacity:1;stroke:#000000;stroke-width:0.3;stroke-miterlimit:4;stroke-dasharray:none;stroke-opacity:1"
         id="ellipse1013"
         cx="30.469339"
         cy="146.41437"
         rx="4.1796303"
         ry="2.627681" />
      <ellipse
         ry="2.627681"
         rx="4.1796303"
         cy="134.21609"
         cx="30.178904"
         id="ellipse1015"
         style="opacity:1;fill:#fffffe;fill-opacity:1;stroke:#000000;stroke-width:0.3;stroke-miterlimit:4;stroke-dasharray:none;stroke-opacity:1" />
      <g
         style="stroke-width:0.531034;stroke-miterlimit:4;stroke-dasharray:none"
         transform="matrix(0.94526543,0,0,0.94526543,16.009229,7.1515396)"
         id="g1115">
        <path
           style="fill:none;stroke:#000000;stroke-width:0.531034;stroke-linecap:butt;stroke-linejoin:miter;stroke-miterlimit:4;stroke-dasharray:none;stroke-opacity:1"
           d="m 184.32187,149.66211 4.55183,4.55183"
           id="path1019"
           inkscape:connector-curvature="0" />
        <path
           inkscape:connector-curvature="0"
           id="path1023"
           d="m 188.8737,149.66211 -4.55183,4.55183"
           style="fill:none;stroke:#000000;stroke-width:0.531034;stroke-linecap:butt;stroke-linejoin:miter;stroke-miterlimit:4;stroke-dasharray:none;stroke-opacity:1" />
      </g>
      <g
         id="g1121"
         transform="matrix(0.94526543,0,0,0.94526543,20.327265,-3.1100001)"
         style="stroke-width:0.531034;stroke-miterlimit:4;stroke-dasharray:none">
        <path
           inkscape:connector-curvature="0"
           id="path1117"
           d="m 184.32187,149.66211 4.55183,4.55183"
           style="fill:none;stroke:#000000;stroke-width:0.531034;stroke-linecap:butt;stroke-linejoin:miter;stroke-miterlimit:4;stroke-dasharray:none;stroke-opacity:1" />
        <path
           style="fill:none;stroke:#000000;stroke-width:0.531034;stroke-linecap:butt;stroke-linejoin:miter;stroke-miterlimit:4;stroke-dasharray:none;stroke-opacity:1"
           d="m 188.8737,149.66211 -4.55183,4.55183"
           id="path1119"
           inkscape:connector-curvature="0" />
      </g>
      <g
         style="stroke-width:0.531034;stroke-miterlimit:4;stroke-dasharray:none"
         transform="matrix(0.94526543,0,0,0.94526543,18.434016,-13.034713)"
         id="g1127">
        <path
           style="fill:none;stroke:#000000;stroke-width:0.531034;stroke-linecap:butt;stroke-linejoin:miter;stroke-miterlimit:4;stroke-dasharray:none;stroke-opacity:1"
           d="m 184.32187,149.66211 4.55183,4.55183"
           id="path1123"
           inkscape:connector-curvature="0" />
        <path
           inkscape:connector-curvature="0"
           id="path1125"
           d="m 188.8737,149.66211 -4.55183,4.55183"
           style="fill:none;stroke:#000000;stroke-width:0.531034;stroke-linecap:butt;stroke-linejoin:miter;stroke-miterlimit:4;stroke-dasharray:none;stroke-opacity:1" />
      </g>
    </g>
  </g>
</svg>
